<svg xmlns="http://www.w3.org/2000/svg" viewBox="0 0 40.97 40.97"><defs><style>.cls-1{fill:#2a6df4;}</style></defs><g id="图层_2" data-name="图层 2"><g id="图层_1-2" data-name="图层 1"><path class="cls-1" d="M36.75,0H4.22A4.22,4.22,0,0,0,0,4.22V36.75A4.22,4.22,0,0,0,4.22,41H36.75A4.22,4.22,0,0,0,41,36.75V4.22A4.22,4.22,0,0,0,36.75,0ZM4.27,2.81H36.8a1.41,1.41,0,0,1,1.4,1.41h0V11H2.86V4.22A1.41,1.41,0,0,1,4.27,2.81ZM36.75,38.16H4.22a1.41,1.41,0,0,1-1.41-1.41V13.83H38.16V36.75A1.41,1.41,0,0,1,36.75,38.16Z"/><path class="cls-1" d="M4.62,7A2.34,2.34,0,1,0,7,4.63,2.34,2.34,0,0,0,4.62,7Z"/><path class="cls-1" d="M10.69,7A2.35,2.35,0,1,0,13,4.63,2.34,2.34,0,0,0,10.69,7Z"/><path class="cls-1" d="M16.77,7a2.34,2.34,0,1,0,2.34-2.34A2.34,2.34,0,0,0,16.77,7Z"/></g></g></svg>