<svg xmlns="http://www.w3.org/2000/svg" viewBox="0 0 31.72 13.88"><defs><style>.cls-1{fill:#2a6df4;}</style></defs><g id="图层_2" data-name="图层 2"><g id="图层_1-2" data-name="图层 1"><path class="cls-1" d="M24.78,0a9.6,9.6,0,0,0-5.3,2,36.63,36.63,0,0,0-3.62,3,36.37,36.37,0,0,0-3.62-3,9.6,9.6,0,0,0-5.3-2A7,7,0,0,0,0,6.94a7,7,0,0,0,6.94,6.94,9.61,9.61,0,0,0,5.3-2,36.37,36.37,0,0,0,3.62-3,34,34,0,0,0,3.62,3,9.53,9.53,0,0,0,5.3,2,7,7,0,0,0,6.94-6.94A7,7,0,0,0,24.78,0ZM10.56,9.46A6.7,6.7,0,0,1,6.94,10.9a4,4,0,0,1-4-4,4,4,0,0,1,4-4,6.64,6.64,0,0,1,3.62,1.45,30.91,30.91,0,0,1,3.09,2.52A32.38,32.38,0,0,1,10.56,9.46ZM24.78,10.9a6.7,6.7,0,0,1-3.62-1.44,31.18,31.18,0,0,1-3.09-2.52,29.82,29.82,0,0,1,3.09-2.52A6.69,6.69,0,0,1,24.78,3a4,4,0,0,1,4,4A4,4,0,0,1,24.78,10.9Z"/></g></g></svg>