<svg xmlns="http://www.w3.org/2000/svg" viewBox="0 0 41.56 41.58"><defs><style>.cls-1{fill:#2a6df4;}</style></defs><g id="图层_2" data-name="图层 2"><g id="图层_1-2" data-name="图层 1"><path class="cls-1" d="M3.83,30.52a.91.91,0,0,1,1.34,0,1,1,0,0,1,0,1.36L2.8,34.24a1,1,0,0,1-1.36-1.36l2.39-2.36ZM33.65,13.89h0a6,6,0,1,1-6-5.94,5.95,5.95,0,0,1,6,5.94Zm-6-4h0a4,4,0,1,0,4,4,4,4,0,0,0-4-4ZM5.71,27h0a28.56,28.56,0,0,1,.23-3.69c.07-.43.11-.86.19-1.29l-.34.13a7.08,7.08,0,0,0-2.15,1.39,1.63,1.63,0,0,1-2.26-.08,1.65,1.65,0,0,1-.27-.42,10.51,10.51,0,0,1,2-12.14h0A10.37,10.37,0,0,1,8.32,8.07a10.86,10.86,0,0,1,4.94.13l.3-.3,0,0h0a26.92,26.92,0,0,1,12-6.93,26.55,26.55,0,0,1,13.93,0,1.57,1.57,0,0,1,1.14,1.13v0A26.83,26.83,0,0,1,33.7,28l-.1.11-.23.21a10.47,10.47,0,0,1-2.73,10.17l-.09.09a10.58,10.58,0,0,1-5.68,2.87,10.73,10.73,0,0,1-6.43-1,1.61,1.61,0,0,1-.71-2.14,2.22,2.22,0,0,1,.27-.38,7,7,0,0,0,1.39-2.14l.14-.35c-.44.08-.89.15-1.32.2a25.63,25.63,0,0,1-3.81.22,1.63,1.63,0,0,1-1.11-.44h0L6.15,28.29A1.59,1.59,0,0,1,5.71,27Zm3.38-3.27h0c-.11.91-.18,1.83-.2,2.72l6.19,6.21c.91,0,1.81-.11,2.72-.22a22.06,22.06,0,0,0,3.29-.67,1.74,1.74,0,0,1,.51-.06,1.59,1.59,0,0,1,1.53,1.66A10.37,10.37,0,0,1,22.34,37c-.18.4-.39.81-.61,1.21a6.34,6.34,0,0,0,2.64,0,7.42,7.42,0,0,0,4-2l.05-.07a7.11,7.11,0,0,0,2-3.65,7.26,7.26,0,0,0-.32-4.17,1.57,1.57,0,0,1,.43-1.73l.5-.47.4-.41.05-.06a23.23,23.23,0,0,0,6.13-10.57,23.64,23.64,0,0,0,.23-11.4A24,24,0,0,0,26.42,4a23.7,23.7,0,0,0-10.59,6.14l-.45.43h0l-.43.48a1.56,1.56,0,0,1-1.78.46A7.41,7.41,0,0,0,9,11.21a7.28,7.28,0,0,0-3.66,2h0a7.16,7.16,0,0,0-2.06,4,7.28,7.28,0,0,0,.05,2.63,12.76,12.76,0,0,1,1.22-.62,11.46,11.46,0,0,1,3.59-.8,1.32,1.32,0,0,1,.52.08,1.56,1.56,0,0,1,1.11,1.95,29.28,29.28,0,0,0-.68,3.3ZM9.73,36.4h0a.94.94,0,0,1,1.33,0,.93.93,0,0,1,0,1.35L8.68,40.14a1,1,0,0,1-1.33,0,.93.93,0,0,1,0-1.35L9.73,36.4Zm-2.95-3h0a1,1,0,0,1,1.34,1.37l-5.4,5.4a.93.93,0,0,1-1.34,0,.92.92,0,0,1,0-1.36l5.4-5.41Z"/></g></g></svg>