<svg xmlns="http://www.w3.org/2000/svg" viewBox="0 0 37.5 23.55"><defs><style>.cls-1{fill:#2a6df4;}</style></defs><g id="图层_2" data-name="图层 2"><g id="图层_1-2" data-name="图层 1"><path class="cls-1" d="M18.76,21.55c-9.61,0-17.14-8.2-17.14-9.69.09-.76,2.83-4.19,7.13-6.74L7.59,4C3,6.77,0,10.53,0,11.85c0,2.71,8.65,11.32,18.76,11.32A19.62,19.62,0,0,0,25.44,22L24.17,20.7A18,18,0,0,1,18.76,21.55Zm0-21a19.37,19.37,0,0,0-6.57,1.19L13.46,3a17.66,17.66,0,0,1,5.3-.85c9.61,0,17.12,8.21,17.12,9.71,0,.9-2.71,4.21-7,6.72l1.14,1.18c4.48-2.72,7.44-6.32,7.44-7.91C37.5,9.16,28.85.53,18.76.53Z"/><path class="cls-1" d="M21.8,18.28,12.13,8.55a7.15,7.15,0,0,0-.76,3.23A7.26,7.26,0,0,0,18.63,19,6.92,6.92,0,0,0,21.8,18.28Zm4.08-6.5A7.26,7.26,0,0,0,15.62,5.17l9.58,9.67A7.29,7.29,0,0,0,25.88,11.78Zm2.75,8.8-1.2-1.2-3.1-3.13L14.22,6,11.78,3.58l-1.2-1.21L8.46.24a.79.79,0,0,0-1.13,0,.81.81,0,0,0,0,1.14L9,3.11H9L10.2,4.3,13,7.16,23.19,17.41l2.67,2.68,1.21,1.21,2,2a.83.83,0,0,0,.57.24.82.82,0,0,0,.58-.24.85.85,0,0,0,0-1.15Z"/></g></g></svg>