<?xml version="1.0" encoding="UTF-8"?>
<svg width="1025px" height="1024px" viewBox="0 0 1025 1024" version="1.1" xmlns="http://www.w3.org/2000/svg" xmlns:xlink="http://www.w3.org/1999/xlink">
    <title>编组 55</title>
    <defs>
        <linearGradient x1="49.9748617%" y1="100.002163%" x2="49.9748617%" y2="-0.00216297787%" id="linearGradient-1">
            <stop stop-color="#0F61D6" offset="0%"></stop>
            <stop stop-color="#3071F1" offset="100%"></stop>
        </linearGradient>
        <linearGradient x1="50%" y1="100.071971%" x2="50%" y2="-0.0719712526%" id="linearGradient-2">
            <stop stop-color="#FFFFFF" offset="0%"></stop>
            <stop stop-color="#C0E0FF" offset="100%"></stop>
        </linearGradient>
        <path d="M640,0 L640,286 C640,410.816353 538.816353,512 414,512 L0,512 L0,512 L640,0 Z" id="path-3"></path>
    </defs>
    <g id="页面-1" stroke="none" stroke-width="1" fill="none" fill-rule="evenodd">
        <g id="编组-55" transform="translate(-0.000000, 0.000000)">
            <g id="svg" fill-rule="nonzero">
                <g id="XMLID_32_-link" fill="url(#linearGradient-1)">
                    <path d="M229.730382,1024 L794.784708,1024 C921.496982,1024 1024.51509,921.496982 1024.51509,794.269618 L1024.51509,229.730382 C1024.51509,103.018109 922.012072,2.91651344e-14 794.784708,2.91651344e-14 L229.730382,2.91651344e-14 C103.018109,2.91651344e-14 2.91651344e-14,102.503018 2.91651344e-14,229.730382 L2.91651344e-14,794.784708 C2.91651344e-14,921.496982 102.503018,1024 229.730382,1024 Z" id="XMLID_32_"></path>
                </g>
                <path d="M855.565392,339.444668 C847.323944,308.539235 823.114688,284.32998 792.209256,276.088531 C736.064386,261.150905 512,261.150905 512,261.150905 C512,261.150905 287.935614,261.150905 231.790744,276.088531 C200.885312,284.32998 176.676056,308.539235 168.434608,339.444668 C153.496982,395.589537 153.496982,512 153.496982,512 C153.496982,512 153.496982,628.925553 168.434608,684.555332 C176.676056,715.460765 200.885312,739.67002 231.790744,747.911469 C287.935614,762.849095 512,762.849095 512,762.849095 C512,762.849095 736.064386,762.849095 792.209256,747.911469 C823.114688,739.67002 847.323944,715.460765 855.565392,684.555332 C870.503018,628.410463 870.503018,512 870.503018,512 C870.503018,512 870.503018,395.074447 855.565392,339.444668 Z M513.030181,687.645875 L374.985915,502.21328 L457.915493,502.21328 L457.915493,336.869215 L566.599598,336.869215 L566.599598,502.21328 L649.529175,502.21328 L513.030181,687.645875 Z" id="XMLID_26_" fill="url(#linearGradient-2)"></path>
            </g>
            <g id="编组-37" transform="translate(384.000000, 512.000000)">
                <mask id="mask-4" fill="white">
                    <use xlink:href="#path-3"></use>
                </mask>
                <use id="蒙版" fill="#061235" xlink:href="#path-3"></use>
                <g id="安卓-(3)" mask="url(#mask-4)">
                    <g transform="translate(543.096680, 451.352783) rotate(-38.000000) translate(-543.096680, -451.352783) translate(252.596680, 160.499230)">
                        <rect id="矩形" fill-opacity="0" fill="#D8D8D8" fill-rule="evenodd" x="-1.8189894e-12" y="0.707106781" width="581" height="581"></rect>
                        <path d="M72.1579148,187.907052 C52.2880391,187.907052 36.2218254,203.964399 36.2218254,223.76657 L36.2218254,373.956673 C36.2218254,393.758844 52.3448102,409.816192 72.1579148,409.816192 C92.0277904,409.816192 108.094004,393.758844 108.094004,373.956673 L108.094004,223.76657 C108.094004,203.964399 92.0277904,187.907052 72.1579148,187.907052 L72.1579148,187.907052 Z M122.002917,427.405512 C122.002917,448.569437 139.204552,465.70484 160.380163,465.70484 L186.551627,465.70484 L186.551627,545.140482 C186.551627,564.942652 202.674612,581 222.487717,581 C242.357592,581 258.423806,564.942652 258.423806,545.140482 L258.423806,465.70484 L306.963074,465.70484 L306.963074,545.140482 C306.963074,564.942652 323.086058,581 342.899163,581 C362.769039,581 378.835252,564.942652 378.835252,545.140482 L378.835252,465.70484 L405.006717,465.70484 C426.182327,465.70484 443.383963,448.569437 443.383963,427.405512 L443.383963,194.659081 L122.002917,194.659081 L122.002917,427.405512 Z M362.087786,52.97994 L387.1806,7.36118562 C388.543106,4.97811636 387.634769,1.91417017 385.193613,0.609156051 C382.809228,-0.695858067 379.74359,0.155238097 378.437855,2.5950471 L353.061185,48.6677194 C331.772033,39.2489219 307.928182,33.9721257 282.721825,33.9721257 C257.515469,33.9721257 233.671618,39.2489219 212.382466,48.6109797 L187.005796,2.5950471 C185.700061,0.155238097 182.634423,-0.695858067 180.250038,0.609156051 C177.808882,1.91417017 176.900545,4.97811636 178.263051,7.36118562 L203.355865,52.97994 C154.078573,78.3993454 120.753953,126.741608 120.753953,182.176338 L444.632999,182.176338 C444.689697,126.684868 411.365077,78.3993454 362.087786,52.97994 Z M209.032972,123.677661 C201.539191,123.677661 195.464686,117.606509 195.464686,110.116862 C195.464686,102.627216 201.539191,96.5560636 209.032972,96.5560636 C216.526754,96.5560636 222.601259,102.627216 222.601259,110.116862 C222.544488,117.606509 216.469983,123.677661 209.032972,123.677661 Z M356.46745,123.677661 C348.973668,123.677661 342.899163,117.606509 342.899163,110.116862 C342.899163,102.627216 348.973668,96.5560636 356.46745,96.5560636 C363.961231,96.5560636 370.035736,102.627216 370.035736,110.116862 C369.978965,117.606509 363.90446,123.677661 356.46745,123.677661 Z M493.285736,187.907052 C473.41586,187.907052 457.349647,203.964399 457.349647,223.76657 L457.349647,373.956673 C457.349647,393.758844 473.472631,409.816192 493.285736,409.816192 C513.155612,409.816192 529.221825,393.758844 529.221825,373.956673 L529.221825,223.76657 C529.221825,203.964399 513.155612,187.907052 493.285736,187.907052 Z" id="形状" fill="#88D578" fill-rule="nonzero"></path>
                    </g>
                </g>
            </g>
        </g>
    </g>
</svg>